<?xml version="1.0" standalone="no"?>
<!DOCTYPE svg PUBLIC "-//W3C//DTD SVG 20010904//EN"
 "http://www.w3.org/TR/2001/REC-SVG-20010904/DTD/svg10.dtd">
<svg version="1.0" xmlns="http://www.w3.org/2000/svg"
 width="700.000000pt" height="700.000000pt" viewBox="0 0 700.000000 700.000000"
 preserveAspectRatio="xMidYMid meet">
<metadata>
Created by potrace 1.14, written by Peter Selinger 2001-2017
</metadata>
<g transform="translate(0.000000,700.000000) scale(0.100000,-0.100000)"
fill="#000000" stroke="none">
<path d="M0 3500 l0 -3500 3500 0 3500 0 0 3500 0 3500 -3500 0 -3500 0 0
-3500z m1891 2254 c177 -52 304 -179 365 -364 17 -52 19 -124 22 -1209 l3
-1155 1327 1325 c1423 1422 1359 1361 1501 1403 67 20 207 21 277 2 173 -46
316 -188 368 -365 21 -71 21 -211 0 -282 -41 -138 -30 -126 -793 -892 l-715
-717 715 -718 c763 -765 752 -753 793 -891 9 -32 16 -91 16 -141 0 -50 -7
-109 -16 -141 -52 -175 -188 -311 -363 -363 -71 -21 -211 -21 -282 0 -138 41
-126 30 -891 793 l-718 716 -717 -716 c-766 -763 -754 -752 -892 -793 -71 -21
-211 -21 -282 0 -179 53 -309 183 -366 369 -17 57 -18 142 -18 1885 0 1743 1
1828 18 1885 73 238 264 384 503 385 54 0 112 -6 145 -16z"/>
</g>
</svg>
