<?xml version="1.0" encoding="UTF-8" standalone="no"?>
<!-- Created with Inkscape (http://www.inkscape.org/) -->

<svg
   width="124.899mm"
   height="122.82455mm"
   viewBox="0 0 124.899 122.82455"
   version="1.1"
   id="svg1"
   xmlns="http://www.w3.org/2000/svg"
   xmlns:svg="http://www.w3.org/2000/svg">
  <defs
     id="defs1" />
  <g
     id="layer1"
     transform="translate(-45.150907,-116.89003)">
    <path
       id="rect3"
       style="fill:#ffffff;stroke-width:5.29167;stroke-linecap:round"
       d="M 50.442573,223.24315 H 164.75824 a 5.2916667,5.2916667 45 0 1 5.29167,5.29167 v 5.88807 a 5.2916667,5.2916667 135 0 1 -5.29167,5.29167 H 50.442573 a 5.2916667,5.2916667 45 0 1 -5.291667,-5.29167 v -5.88807 a 5.2916667,5.2916667 135 0 1 5.291667,-5.29167 z M 81.799141,122.18169 v 57.47091 h -15.45642 a 1.8355426,1.8355426 109.13034 0 0 -1.136642,3.27681 l 38.239051,30.1568 a 6.7099113,6.7099113 1.5380906e-4 0 0 8.31006,2e-5 l 38.23953,-30.15684 a 1.8355267,1.8355267 70.869814 0 0 -1.13663,-3.27679 h -15.45641 v -57.47091 a 5.2916667,5.2916667 45 0 0 -5.29167,-5.29167 H 87.090808 a 5.2916667,5.2916667 135 0 0 -5.291667,5.29167 z" />
  </g>
</svg>
