<?xml version="1.0" encoding="UTF-8" standalone="no"?>
<svg
   width="1000"
   height="1000"
   viewBox="0 0 264.58331 264.58334"
   version="1.1"
   id="svg8"
   xmlns="http://www.w3.org/2000/svg"
   xmlns:svg="http://www.w3.org/2000/svg"
   xmlns:rdf="http://www.w3.org/1999/02/22-rdf-syntax-ns#"
   xmlns:cc="http://creativecommons.org/ns#"
   xmlns:dc="http://purl.org/dc/elements/1.1/">
  <defs
     id="defs2" />
  <metadata
     id="metadata5">
    <rdf:RDF>
      <cc:Work
         rdf:about="">
        <dc:format>image/svg+xml</dc:format>
        <dc:type
           rdf:resource="http://purl.org/dc/dcmitype/StillImage" />
      </cc:Work>
    </rdf:RDF>
  </metadata>
  <g
     id="layer1"
     transform="translate(125.88128,-325.31906)">
    <g
       id="g1">
      <path
         d="M -125.88129,325.3192 V 589.90226 H 138.70206 V 325.3192 Z"
         style="opacity:0.999;fill:#60c187;fill-opacity:1;stroke:none;stroke-width:1;stroke-linejoin:round;stroke-miterlimit:4;stroke-dasharray:none"
         id="path1001" />
      <path
         style="color:#000000;fill:#ffffff;stroke-linecap:round;stroke-linejoin:round;-inkscape-stroke:none"
         d="m -59.736328,371.62109 a 19.84375,19.84375 0 0 0 -19.84375,19.84375 v 132.29102 a 19.845734,19.845734 0 0 0 33.876953,14.03125 L 6.4101562,485.67383 58.525391,537.78711 a 19.84375,19.84375 0 0 0 28.0625,0 19.84375,19.84375 0 0 0 0,-28.0625 L 34.472656,457.60937 86.587891,405.49609 a 19.84375,19.84375 0 0 0 0,-28.0625 19.84375,19.84375 0 0 0 -28.0625,0 l -66.1445316,66.14258 a 19.84375,19.84375 0 0 0 -0.00195,0.002 19.84375,19.84375 0 0 0 -0.00195,0.002 L -39.892572,475.8497 v -84.38477 a 19.84375,19.84375 0 0 0 -19.84375,-19.84375 z"
         id="path1003" />
    </g>
  </g>
</svg>
