<?xml version="1.0" encoding="UTF-8" standalone="no"?>
<!-- Created with Inkscape (http://www.inkscape.org/) -->

<svg
   width="66.214882mm"
   height="61.133705mm"
   viewBox="0 0 66.214882 61.133705"
   version="1.1"
   id="svg1"
   sodipodi:docname="list-mark-white.svg"
   inkscape:version="1.3.2 (091e20e, 2023-11-25, custom)"
   xmlns:inkscape="http://www.inkscape.org/namespaces/inkscape"
   xmlns:sodipodi="http://sodipodi.sourceforge.net/DTD/sodipodi-0.dtd"
   xmlns="http://www.w3.org/2000/svg"
   xmlns:svg="http://www.w3.org/2000/svg">
  <sodipodi:namedview
     id="namedview1"
     pagecolor="#ffffff"
     bordercolor="#111111"
     borderopacity="1"
     inkscape:showpageshadow="0"
     inkscape:pageopacity="0"
     inkscape:pagecheckerboard="1"
     inkscape:deskcolor="#d1d1d1"
     inkscape:document-units="mm"
     inkscape:zoom="1.9562826"
     inkscape:cx="60.062898"
     inkscape:cy="32.970697"
     inkscape:window-width="1920"
     inkscape:window-height="991"
     inkscape:window-x="-9"
     inkscape:window-y="-9"
     inkscape:window-maximized="1"
     inkscape:current-layer="svg1" />
  <defs
     id="defs1" />
  <path
     style="color:#000000;fill:#60c187;stroke:none;stroke-width:5.29167;stroke-linecap:round;stroke-dasharray:none;stroke-opacity:1;-inkscape-stroke:none"
     d="M 16.004597,0 C 7.1503235,-1.1966856e-4 -7.3599943e-6,7.4408116 0,16.459358 0.00165671,20.898849 1.3607339,25.344056 4.5511728,28.5347 2.1852806,31.706635 0.91157215,35.299054 0.89154085,38.952784 v 0.0073 0.0073 c 4.14e-5,6.469983 4.05932385,12.108939 9.96332815,15.986651 5.904006,3.877713 13.772596,6.179688 22.252574,6.17967 8.479978,1.8e-5 16.346769,-2.301957 22.250771,-6.17967 5.904011,-3.877712 9.96329,-9.516668 9.963327,-15.986618 v -0.0073 -0.0073 c -0.02007,-3.653601 -1.294025,-7.246398 -3.659629,-10.418084 3.190506,-3.190598 4.551271,-7.635758 4.552973,-12.075342 0,-9.0185466 -7.150318,-16.459477798557 -16.0046,-16.459358138557 C 41.356223,2.2608144e-4 34.193682,7.4389579 34.205692,16.461185 v 0.0018 c 2.4e-4,0.131603 -1.28e-4,0.234244 0,0.393649 -0.49247,-0.02292 -0.649759,-0.0554 -1.096454,-0.05567 h -0.0018 -0.0018 c -0.44721,3.13e-4 -0.605245,0.03277 -1.098249,0.05567 6.4e-5,-0.160537 -1.3e-4,-0.262727 0,-0.395443 C 32.019271,7.438971 24.858562,2.3922144e-4 16.004504,4.6001443e-5 Z m 0,4.869327 c 6.134043,1.289e-4 11.14208,5.1186455 11.133475,11.586432 -9.21e-4,0.999456 0,2.960422 0,2.960422 l 0.0018,2.635078 2.626094,-0.210308 c 0,0 2.263976,-0.169629 3.339688,-0.170761 1.074284,7.64e-4 3.341481,0.170761 3.341481,0.170761 l 2.626086,0.210308 0.0018,-2.635078 c 0,0 0.0018,-1.95595 0,-2.960422 v -0.0018 c -0.0074,-6.4669259 5.001822,-11.5845131 11.135283,-11.584642 6.134196,-8.28e-5 11.133479,5.118167 11.133479,11.590031 -0.0018,4.279893 -1.254103,7.769303 -4.326488,9.790771 l -2.444548,1.606927 2.025738,2.112015 c 2.6616,2.776086 3.834606,5.829145 3.853757,9.003491 -0.0018,4.425383 -2.799848,8.647693 -7.766828,11.909973 -4.968986,3.263597 -11.99049,5.379818 -19.577952,5.379809 -7.587471,9e-6 -14.610766,-2.116212 -19.579748,-5.379809 -4.9669829,-3.26228 -7.7627547,-7.48459 -7.7650334,-11.909973 0.019152,-3.17454 1.1904562,-6.227497 3.85196,-9.003491 L 11.640453,27.85701 9.1959051,26.250083 C 6.1231257,24.228367 4.8709772,20.738367 4.8694154,16.457509 4.8703358,9.9865185 9.8710734,4.8691982 16.004688,4.869281 Z"
     id="path1" />
</svg>
