<?xml version="1.0" encoding="UTF-8" standalone="no"?>
<!-- Created with Inkscape (http://www.inkscape.org/) -->

<svg
   width="66.657448mm"
   height="61.135288mm"
   viewBox="0 0 66.657448 61.135288"
   version="1.1"
   id="svg1"
   xmlns="http://www.w3.org/2000/svg"
   xmlns:svg="http://www.w3.org/2000/svg">
  <defs
     id="defs1" />
  <g
     id="layer1"
     transform="translate(-76.30726,-112.61441)">
    <path
       id="path1"
       style="fill:#60c187;fill-opacity:1;stroke-width:0.396875;stroke-linecap:round;stroke-linejoin:round"
       d="m 91.0521,112.61441 c -8.143257,-1.1e-4 -14.744843,6.82239 -14.744836,15.23835 0.0019,5.20696 1.643106,10.05252 5.89318,12.84883 -3.31322,3.45574 -4.900616,7.48602 -4.923214,11.60807 7.6e-5,11.84102 14.89981,21.44007 32.35875,21.44004 17.45893,3e-5 32.35867,-9.59902 32.35875,-21.44004 -0.0226,-4.12205 -1.6105,-8.15233 -4.92373,-11.60807 4.25007,-2.79631 5.8917,-7.64187 5.8937,-12.84883 0,-8.41596 -6.60158,-15.23846 -14.74484,-15.23835 -8.14306,1.8e-4 -14.75552,6.8226 -14.74432,15.23835 0.002,1.08117 0,3.21169 0,3.21169 0,0 -2.43158,-0.19382 -3.83956,-0.19482 -1.40799,0.001 -3.83956,0.19482 -3.83956,0.19482 0,0 -0.001,-2.13052 0,-3.21169 0.0112,-8.41575 -6.60126,-15.23817 -14.74432,-15.23835 z" />
  </g>
</svg>
